<svg xmlns="http://www.w3.org/2000/svg" xmlns:xlink="http://www.w3.org/1999/xlink" width="2000" zoomAndPan="magnify" viewBox="0 0 1500 1499.999933" height="2000" preserveAspectRatio="xMidYMid meet" version="1.0"><defs><g/><clipPath id="980cb9796b"><rect x="0" width="202" y="0" height="52"/></clipPath></defs><g fill="#000000" fill-opacity="1"><g transform="translate(249.531722, 796.474135)"><g><path d="M 98.125 -169.015625 L 166.34375 0 L 124.96875 0 L 112.46875 -33.796875 L 48.140625 -33.796875 L 35.640625 0 L -5.734375 0 L 62.484375 -169.015625 Z M 99.359375 -67.609375 L 80.515625 -116.765625 L 80.09375 -116.765625 L 61.25 -67.609375 Z M 99.359375 -67.609375 "/></g></g></g><g fill="#ff6200" fill-opacity="1"><g transform="translate(390.883276, 796.474135)"><g><path d="M 12.296875 0 L 12.296875 -176.171875 L 48.546875 -176.171875 L 48.546875 0 Z M 12.296875 0 "/></g></g></g><g fill="#000000" fill-opacity="1"><g transform="translate(432.473112, 796.474135)"><g><path d="M 120.453125 -92.078125 C 130.285156 -81.359375 135.203125 -68.210938 135.203125 -52.640625 C 135.203125 -37.078125 130.285156 -23.898438 120.453125 -13.109375 C 110.617188 -2.316406 98.125 3.078125 82.96875 3.078125 C 69.039062 3.078125 57.566406 -1.289062 48.546875 -10.03125 L 48.546875 53.265625 L 12.296875 53.265625 L 12.296875 -105.09375 L 48.140625 -105.09375 L 48.140625 -93.21875 L 48.546875 -93.21875 C 57.566406 -103.1875 69.039062 -108.171875 82.96875 -108.171875 C 98.125 -108.171875 110.617188 -102.804688 120.453125 -92.078125 Z M 89.625 -34.828125 C 94.332031 -39.472656 96.6875 -45.410156 96.6875 -52.640625 C 96.6875 -59.878906 94.429688 -65.785156 89.921875 -70.359375 C 85.421875 -74.941406 79.484375 -77.234375 72.109375 -77.234375 C 65.003906 -77.234375 59.164062 -74.910156 54.59375 -70.265625 C 50.019531 -65.617188 47.734375 -59.75 47.734375 -52.65625 C 47.734375 -45.414062 50.085938 -39.472656 54.796875 -34.828125 C 59.515625 -30.179688 65.285156 -27.859375 72.109375 -27.859375 C 79.078125 -27.859375 84.914062 -30.179688 89.625 -34.828125 Z M 89.625 -34.828125 "/></g></g></g><g fill="#000000" fill-opacity="1"><g transform="translate(553.132339, 796.474135)"><g><path d="M 12.296875 0 L 12.296875 -176.171875 L 48.546875 -176.171875 L 48.546875 -94.03125 L 48.96875 -94.03125 C 58.382812 -103.457031 68.421875 -108.171875 79.078125 -108.171875 C 84.265625 -108.171875 89.414062 -107.484375 94.53125 -106.109375 C 99.65625 -104.742188 104.570312 -102.628906 109.28125 -99.765625 C 114 -96.898438 117.828125 -92.835938 120.765625 -87.578125 C 123.703125 -82.316406 125.171875 -76.207031 125.171875 -69.25 L 125.171875 0 L 88.90625 0 L 88.90625 -59.40625 C 88.90625 -64.875 87.164062 -69.65625 83.6875 -73.75 C 80.207031 -77.84375 75.664062 -79.890625 70.0625 -79.890625 C 64.601562 -79.890625 59.648438 -77.769531 55.203125 -73.53125 C 50.765625 -69.300781 48.546875 -64.59375 48.546875 -59.40625 L 48.546875 0 Z M 12.296875 0 "/></g></g></g><g fill="#000000" fill-opacity="1"><g transform="translate(669.284745, 796.474135)"><g><path d="M 19.46875 -13 C 9.632812 -23.726562 4.71875 -36.875 4.71875 -52.4375 C 4.71875 -68.007812 9.632812 -81.191406 19.46875 -91.984375 C 29.300781 -102.773438 41.796875 -108.171875 56.953125 -108.171875 C 70.878906 -108.171875 82.351562 -103.800781 91.375 -95.0625 L 91.375 -105.09375 L 127.625 -105.09375 L 127.625 0 L 91.78125 0 L 91.78125 -11.875 L 91.375 -11.875 C 82.351562 -1.90625 70.878906 3.078125 56.953125 3.078125 C 41.796875 3.078125 29.300781 -2.28125 19.46875 -13 Z M 50.28125 -70.265625 C 45.570312 -65.617188 43.21875 -59.675781 43.21875 -52.4375 C 43.21875 -45.207031 45.472656 -39.300781 49.984375 -34.71875 C 54.492188 -30.144531 60.4375 -27.859375 67.8125 -27.859375 C 74.914062 -27.859375 80.753906 -30.179688 85.328125 -34.828125 C 89.898438 -39.472656 92.1875 -45.34375 92.1875 -52.4375 C 92.1875 -59.675781 89.828125 -65.617188 85.109375 -70.265625 C 80.398438 -74.910156 74.632812 -77.234375 67.8125 -77.234375 C 60.84375 -77.234375 55 -74.910156 50.28125 -70.265625 Z M 50.28125 -70.265625 "/></g></g></g><g fill="#000000" fill-opacity="1"><g transform="translate(789.943983, 796.474135)"><g/></g></g><g fill="#000000" fill-opacity="1"><g transform="translate(826.612773, 796.474135)"><g><path d="M 1.640625 -135.203125 L 1.640625 -169.015625 L 120.453125 -169.015625 L 120.453125 -135.203125 L 80.3125 -135.203125 L 80.3125 0 L 41.796875 0 L 41.796875 -135.203125 Z M 1.640625 -135.203125 "/></g></g></g><g fill="#000000" fill-opacity="1"><g transform="translate(929.449648, 796.474135)"><g><path d="M 118.609375 -47.53125 L 42.40625 -47.53125 C 42.40625 -40.15625 44.796875 -34.691406 49.578125 -31.140625 C 54.359375 -27.585938 59.546875 -25.8125 65.140625 -25.8125 C 71.015625 -25.8125 75.660156 -26.597656 79.078125 -28.171875 C 82.492188 -29.742188 86.382812 -32.847656 90.75 -37.484375 L 116.96875 -24.375 C 106.039062 -6.070312 87.878906 3.078125 62.484375 3.078125 C 46.640625 3.078125 33.050781 -2.347656 21.71875 -13.203125 C 10.382812 -24.066406 4.71875 -37.144531 4.71875 -52.4375 C 4.71875 -67.738281 10.382812 -80.851562 21.71875 -91.78125 C 33.050781 -102.707031 46.640625 -108.171875 62.484375 -108.171875 C 79.140625 -108.171875 92.691406 -103.351562 103.140625 -93.71875 C 113.585938 -84.09375 118.8125 -70.332031 118.8125 -52.4375 C 118.8125 -49.976562 118.742188 -48.34375 118.609375 -47.53125 Z M 43.4375 -67.609375 L 83.375 -67.609375 C 82.5625 -73.066406 80.410156 -77.265625 76.921875 -80.203125 C 73.441406 -83.140625 68.96875 -84.609375 63.5 -84.609375 C 57.5 -84.609375 52.722656 -83.035156 49.171875 -79.890625 C 45.617188 -76.753906 43.707031 -72.660156 43.4375 -67.609375 Z M 43.4375 -67.609375 "/></g></g></g><g fill="#000000" fill-opacity="1"><g transform="translate(1033.720513, 796.474135)"><g><path d="M 68.21875 -78.46875 C 61.382812 -78.46875 55.507812 -75.9375 50.59375 -70.875 C 45.675781 -65.820312 43.21875 -59.75 43.21875 -52.65625 C 43.21875 -45.414062 45.675781 -39.265625 50.59375 -34.203125 C 55.507812 -29.148438 61.382812 -26.625 68.21875 -26.625 C 71.5 -26.625 74.601562 -27.035156 77.53125 -27.859375 C 80.46875 -28.679688 82.625 -29.5 84 -30.3125 L 85.84375 -31.546875 L 98.125 -6.34375 C 97.164062 -5.664062 95.832031 -4.8125 94.125 -3.78125 C 92.425781 -2.757812 88.535156 -1.363281 82.453125 0.40625 C 76.378906 2.1875 69.859375 3.078125 62.890625 3.078125 C 47.460938 3.078125 33.910156 -2.347656 22.234375 -13.203125 C 10.554688 -24.066406 4.71875 -37.078125 4.71875 -52.234375 C 4.71875 -67.535156 10.554688 -80.679688 22.234375 -91.671875 C 33.910156 -102.671875 47.460938 -108.171875 62.890625 -108.171875 C 69.859375 -108.171875 76.273438 -107.347656 82.140625 -105.703125 C 88.015625 -104.066406 92.179688 -102.429688 94.640625 -100.796875 L 98.125 -98.328125 L 85.84375 -73.546875 C 81.332031 -76.828125 75.457031 -78.46875 68.21875 -78.46875 Z M 68.21875 -78.46875 "/></g></g></g><g fill="#000000" fill-opacity="1"><g transform="translate(1115.04767, 796.474135)"><g><path d="M 12.296875 0 L 12.296875 -176.171875 L 48.546875 -176.171875 L 48.546875 -94.03125 L 48.96875 -94.03125 C 58.382812 -103.457031 68.421875 -108.171875 79.078125 -108.171875 C 84.265625 -108.171875 89.414062 -107.484375 94.53125 -106.109375 C 99.65625 -104.742188 104.570312 -102.628906 109.28125 -99.765625 C 114 -96.898438 117.828125 -92.835938 120.765625 -87.578125 C 123.703125 -82.316406 125.171875 -76.207031 125.171875 -69.25 L 125.171875 0 L 88.90625 0 L 88.90625 -59.40625 C 88.90625 -64.875 87.164062 -69.65625 83.6875 -73.75 C 80.207031 -77.84375 75.664062 -79.890625 70.0625 -79.890625 C 64.601562 -79.890625 59.648438 -77.769531 55.203125 -73.53125 C 50.765625 -69.300781 48.546875 -64.59375 48.546875 -59.40625 L 48.546875 0 Z M 12.296875 0 "/></g></g></g><g transform="matrix(1, 0, 0, 1, 662, 811)"><g clip-path="url(#980cb9796b)"><g fill="#000000" fill-opacity="1"><g transform="translate(3.073784, 39.477524)"><g><path d="M 36.265625 -28.984375 C 36.796875 -28.984375 37.28125 -28.789062 37.71875 -28.40625 C 38.15625 -28.019531 38.375 -27.507812 38.375 -26.875 C 38.375 -26.65625 38.332031 -26.421875 38.25 -26.171875 L 29.71875 -1.234375 C 29.601562 -0.847656 29.375 -0.550781 29.03125 -0.34375 C 28.6875 -0.144531 28.328125 -0.03125 27.953125 0 C 27.566406 0 27.191406 -0.109375 26.828125 -0.328125 C 26.472656 -0.546875 26.210938 -0.863281 26.046875 -1.28125 L 19.625 -16.328125 L 13.234375 -1.28125 C 13.066406 -0.863281 12.800781 -0.546875 12.4375 -0.328125 C 12.082031 -0.109375 11.703125 0 11.296875 0 C 10.910156 -0.03125 10.550781 -0.15625 10.21875 -0.375 C 9.894531 -0.59375 9.675781 -0.878906 9.5625 -1.234375 L 1.03125 -26.171875 C 0.945312 -26.421875 0.90625 -26.65625 0.90625 -26.875 C 0.90625 -27.476562 1.128906 -27.976562 1.578125 -28.375 C 2.035156 -28.78125 2.523438 -28.984375 3.046875 -28.984375 C 3.484375 -28.984375 3.878906 -28.863281 4.234375 -28.625 C 4.597656 -28.394531 4.835938 -28.085938 4.953125 -27.703125 L 11.90625 -7.046875 L 17.890625 -21.71875 C 18.054688 -22.101562 18.300781 -22.40625 18.625 -22.625 C 18.957031 -22.84375 19.332031 -22.953125 19.75 -22.953125 C 20.15625 -22.953125 20.519531 -22.84375 20.84375 -22.625 C 21.175781 -22.40625 21.425781 -22.101562 21.59375 -21.71875 L 27.40625 -7.046875 L 34.328125 -27.703125 C 34.441406 -28.109375 34.675781 -28.421875 35.03125 -28.640625 C 35.394531 -28.867188 35.804688 -28.984375 36.265625 -28.984375 Z M 36.265625 -28.984375 "/></g></g></g><g fill="#000000" fill-opacity="1"><g transform="translate(69.221132, 39.477524)"><g><path d="M 6.640625 -1.984375 C 6.640625 -1.429688 6.453125 -0.960938 6.078125 -0.578125 C 5.703125 -0.191406 5.226562 0 4.65625 0 C 4.101562 0 3.640625 -0.191406 3.265625 -0.578125 C 2.898438 -0.960938 2.71875 -1.429688 2.71875 -1.984375 L 2.71875 -19.828125 C 2.71875 -20.378906 2.898438 -20.847656 3.265625 -21.234375 C 3.640625 -21.617188 4.101562 -21.8125 4.65625 -21.8125 C 5.226562 -21.8125 5.703125 -21.617188 6.078125 -21.234375 C 6.453125 -20.847656 6.640625 -20.378906 6.640625 -19.828125 Z M 4.65625 -24.53125 C 3.851562 -24.53125 3.28125 -24.671875 2.9375 -24.953125 C 2.59375 -25.242188 2.421875 -25.707031 2.421875 -26.34375 L 2.421875 -27 C 2.421875 -27.65625 2.601562 -28.117188 2.96875 -28.390625 C 3.34375 -28.671875 3.914062 -28.8125 4.6875 -28.8125 C 5.457031 -28.8125 6.015625 -28.664062 6.359375 -28.375 C 6.703125 -28.09375 6.875 -27.632812 6.875 -27 L 6.875 -26.34375 C 6.875 -25.675781 6.695312 -25.207031 6.34375 -24.9375 C 5.988281 -24.664062 5.425781 -24.53125 4.65625 -24.53125 Z M 4.65625 -24.53125 "/></g></g></g><g fill="#000000" fill-opacity="1"><g transform="translate(105.455092, 39.477524)"><g><path d="M 13.6875 -22.09375 C 14.394531 -22.09375 15.007812 -21.90625 15.53125 -21.53125 C 16.0625 -21.164062 16.328125 -20.707031 16.328125 -20.15625 C 16.328125 -19.5 16.15625 -19 15.8125 -18.65625 C 15.46875 -18.3125 15.046875 -18.140625 14.546875 -18.140625 C 14.296875 -18.140625 13.925781 -18.222656 13.4375 -18.390625 C 12.863281 -18.578125 12.410156 -18.671875 12.078125 -18.671875 C 11.222656 -18.671875 10.390625 -18.375 9.578125 -17.78125 C 8.773438 -17.195312 8.117188 -16.390625 7.609375 -15.359375 C 7.097656 -14.328125 6.84375 -13.175781 6.84375 -11.90625 L 6.84375 -1.984375 C 6.84375 -1.429688 6.65625 -0.960938 6.28125 -0.578125 C 5.914062 -0.191406 5.441406 0 4.859375 0 C 4.285156 0 3.816406 -0.179688 3.453125 -0.546875 C 3.097656 -0.921875 2.921875 -1.398438 2.921875 -1.984375 L 2.921875 -19.625 C 2.921875 -20.164062 3.109375 -20.628906 3.484375 -21.015625 C 3.859375 -21.398438 4.316406 -21.59375 4.859375 -21.59375 C 5.441406 -21.59375 5.914062 -21.398438 6.28125 -21.015625 C 6.65625 -20.628906 6.84375 -20.164062 6.84375 -19.625 L 6.84375 -17.515625 C 7.445312 -18.859375 8.351562 -19.945312 9.5625 -20.78125 C 10.769531 -21.625 12.144531 -22.0625 13.6875 -22.09375 Z M 13.6875 -22.09375 "/></g></g></g><g fill="#000000" fill-opacity="1"><g transform="translate(149.352839, 39.477524)"><g><path d="M 21.890625 -11.625 C 21.859375 -11.125 21.648438 -10.703125 21.265625 -10.359375 C 20.878906 -10.015625 20.425781 -9.84375 19.90625 -9.84375 L 5.40625 -9.84375 C 5.59375 -7.84375 6.351562 -6.238281 7.6875 -5.03125 C 9.019531 -3.820312 10.648438 -3.21875 12.578125 -3.21875 C 13.890625 -3.21875 14.957031 -3.410156 15.78125 -3.796875 C 16.601562 -4.179688 17.332031 -4.675781 17.96875 -5.28125 C 18.382812 -5.519531 18.785156 -5.640625 19.171875 -5.640625 C 19.640625 -5.640625 20.03125 -5.472656 20.34375 -5.140625 C 20.65625 -4.816406 20.8125 -4.4375 20.8125 -4 C 20.8125 -3.414062 20.535156 -2.894531 19.984375 -2.4375 C 19.191406 -1.632812 18.132812 -0.957031 16.8125 -0.40625 C 15.5 0.132812 14.15625 0.40625 12.78125 0.40625 C 10.550781 0.40625 8.59375 -0.0546875 6.90625 -0.984375 C 5.21875 -1.921875 3.910156 -3.226562 2.984375 -4.90625 C 2.066406 -6.582031 1.609375 -8.476562 1.609375 -10.59375 C 1.609375 -12.90625 2.082031 -14.929688 3.03125 -16.671875 C 3.976562 -18.421875 5.226562 -19.757812 6.78125 -20.6875 C 8.332031 -21.625 10 -22.09375 11.78125 -22.09375 C 13.539062 -22.09375 15.191406 -21.640625 16.734375 -20.734375 C 18.273438 -19.828125 19.507812 -18.578125 20.4375 -16.984375 C 21.375 -15.390625 21.859375 -13.601562 21.890625 -11.625 Z M 11.78125 -18.46875 C 10.25 -18.46875 8.914062 -18.035156 7.78125 -17.171875 C 6.65625 -16.304688 5.914062 -14.96875 5.5625 -13.15625 L 17.71875 -13.15625 L 17.71875 -13.484375 C 17.582031 -14.929688 16.929688 -16.125 15.765625 -17.0625 C 14.597656 -18 13.269531 -18.46875 11.78125 -18.46875 Z M 11.78125 -18.46875 "/></g></g></g></g></g></svg>