<svg xmlns="http://www.w3.org/2000/svg" xmlns:xlink="http://www.w3.org/1999/xlink" width="2000" zoomAndPan="magnify" viewBox="0 0 1500 1499.999933" height="2000" preserveAspectRatio="xMidYMid meet" version="1.0"><defs><g/><clipPath id="134105b94f"><rect x="0" width="301" y="0" height="78"/></clipPath></defs><g fill="#ffffff" fill-opacity="1"><g transform="translate(1.794848, 763.787026)"><g><path d="M 146.703125 -252.671875 L 248.6875 0 L 186.828125 0 L 168.140625 -50.53125 L 71.96875 -50.53125 L 53.296875 0 L -8.578125 0 L 93.40625 -252.671875 Z M 148.53125 -101.0625 L 120.359375 -174.578125 L 119.75 -174.578125 L 91.578125 -101.0625 Z M 148.53125 -101.0625 "/></g></g></g><g fill="#000000" fill-opacity="1"><g transform="translate(213.119049, 763.787026)"><g><path d="M 18.375 0 L 18.375 -263.390625 L 72.578125 -263.390625 L 72.578125 0 Z M 18.375 0 "/></g></g></g><g fill="#ffffff" fill-opacity="1"><g transform="translate(275.298731, 763.787026)"><g><path d="M 180.078125 -137.65625 C 194.785156 -121.632812 202.140625 -101.984375 202.140625 -78.703125 C 202.140625 -55.429688 194.785156 -35.726562 180.078125 -19.59375 C 165.378906 -3.46875 146.695312 4.59375 124.03125 4.59375 C 103.207031 4.59375 86.054688 -1.9375 72.578125 -15 L 72.578125 79.625 L 18.375 79.625 L 18.375 -157.109375 L 71.96875 -157.109375 L 71.96875 -139.34375 L 72.578125 -139.34375 C 86.054688 -154.25 103.207031 -161.703125 124.03125 -161.703125 C 146.695312 -161.703125 165.378906 -153.6875 180.078125 -137.65625 Z M 133.984375 -52.0625 C 141.035156 -59.007812 144.5625 -67.890625 144.5625 -78.703125 C 144.5625 -89.523438 141.191406 -98.359375 134.453125 -105.203125 C 127.710938 -112.046875 118.832031 -115.46875 107.8125 -115.46875 C 97.1875 -115.46875 88.453125 -111.992188 81.609375 -105.046875 C 74.773438 -98.109375 71.359375 -89.328125 71.359375 -78.703125 C 71.359375 -67.890625 74.878906 -59.007812 81.921875 -52.0625 C 88.972656 -45.125 97.601562 -41.65625 107.8125 -41.65625 C 118.21875 -41.65625 126.941406 -45.125 133.984375 -52.0625 Z M 133.984375 -52.0625 "/></g></g></g><g fill="#ffffff" fill-opacity="1"><g transform="translate(455.686443, 763.787026)"><g><path d="M 18.375 0 L 18.375 -263.390625 L 72.578125 -263.390625 L 72.578125 -140.578125 L 73.203125 -140.578125 C 87.285156 -154.660156 102.289062 -161.703125 118.21875 -161.703125 C 125.976562 -161.703125 133.6875 -160.679688 141.34375 -158.640625 C 149 -156.597656 156.347656 -153.429688 163.390625 -149.140625 C 170.429688 -144.859375 176.144531 -138.785156 180.53125 -130.921875 C 184.925781 -123.066406 187.125 -113.929688 187.125 -103.515625 L 187.125 0 L 132.921875 0 L 132.921875 -88.8125 C 132.921875 -96.976562 130.316406 -104.125 125.109375 -110.25 C 119.898438 -116.375 113.113281 -119.4375 104.75 -119.4375 C 96.582031 -119.4375 89.175781 -116.269531 82.53125 -109.9375 C 75.894531 -103.613281 72.578125 -96.570312 72.578125 -88.8125 L 72.578125 0 Z M 18.375 0 "/></g></g></g><g fill="#ffffff" fill-opacity="1"><g transform="translate(629.33635, 763.787026)"><g><path d="M 29.09375 -19.4375 C 14.394531 -35.46875 7.046875 -55.117188 7.046875 -78.390625 C 7.046875 -101.671875 14.394531 -121.375 29.09375 -137.5 C 43.789062 -153.632812 62.472656 -161.703125 85.140625 -161.703125 C 105.960938 -161.703125 123.113281 -155.171875 136.59375 -142.109375 L 136.59375 -157.109375 L 190.796875 -157.109375 L 190.796875 0 L 137.203125 0 L 137.203125 -17.765625 L 136.59375 -17.765625 C 123.113281 -2.859375 105.960938 4.59375 85.140625 4.59375 C 62.472656 4.59375 43.789062 -3.414062 29.09375 -19.4375 Z M 75.1875 -105.046875 C 68.144531 -98.109375 64.625 -89.226562 64.625 -78.40625 C 64.625 -67.582031 67.988281 -58.75 74.71875 -51.90625 C 81.457031 -45.070312 90.34375 -41.65625 101.375 -41.65625 C 111.988281 -41.65625 120.710938 -45.125 127.546875 -52.0625 C 134.390625 -59.007812 137.8125 -67.789062 137.8125 -78.40625 C 137.8125 -89.226562 134.289062 -98.109375 127.25 -105.046875 C 120.207031 -111.992188 111.582031 -115.46875 101.375 -115.46875 C 90.957031 -115.46875 82.226562 -111.992188 75.1875 -105.046875 Z M 75.1875 -105.046875 "/></g></g></g><g fill="#ffffff" fill-opacity="1"><g transform="translate(809.72404, 763.787026)"><g/></g></g><g fill="#ffffff" fill-opacity="1"><g transform="translate(864.544347, 763.787026)"><g><path d="M 2.453125 -202.140625 L 2.453125 -252.671875 L 180.078125 -252.671875 L 180.078125 -202.140625 L 120.0625 -202.140625 L 120.0625 0 L 62.484375 0 L 62.484375 -202.140625 Z M 2.453125 -202.140625 "/></g></g></g><g fill="#ffffff" fill-opacity="1"><g transform="translate(1018.287239, 763.787026)"><g><path d="M 177.328125 -71.046875 L 63.390625 -71.046875 C 63.390625 -60.023438 66.960938 -51.859375 74.109375 -46.546875 C 81.253906 -41.242188 89.015625 -38.59375 97.390625 -38.59375 C 106.171875 -38.59375 113.113281 -39.765625 118.21875 -42.109375 C 123.320312 -44.460938 129.140625 -49.109375 135.671875 -56.046875 L 174.875 -36.453125 C 158.539062 -9.085938 131.382812 4.59375 93.40625 4.59375 C 69.726562 4.59375 49.414062 -3.519531 32.46875 -19.75 C 15.519531 -35.988281 7.046875 -55.539062 7.046875 -78.40625 C 7.046875 -101.269531 15.519531 -120.867188 32.46875 -137.203125 C 49.414062 -153.535156 69.726562 -161.703125 93.40625 -161.703125 C 118.320312 -161.703125 138.585938 -154.503906 154.203125 -140.109375 C 169.828125 -125.722656 177.640625 -105.15625 177.640625 -78.40625 C 177.640625 -74.726562 177.535156 -72.273438 177.328125 -71.046875 Z M 64.921875 -101.0625 L 124.65625 -101.0625 C 123.425781 -109.226562 120.207031 -115.503906 115 -119.890625 C 109.789062 -124.285156 103.101562 -126.484375 94.9375 -126.484375 C 85.957031 -126.484375 78.8125 -124.132812 73.5 -119.4375 C 68.195312 -114.75 65.335938 -108.625 64.921875 -101.0625 Z M 64.921875 -101.0625 "/></g></g></g><g fill="#ffffff" fill-opacity="1"><g transform="translate(1174.173931, 763.787026)"><g><path d="M 101.984375 -117.296875 C 91.773438 -117.296875 82.992188 -113.519531 75.640625 -105.96875 C 68.296875 -98.414062 64.625 -89.328125 64.625 -78.703125 C 64.625 -67.890625 68.296875 -58.703125 75.640625 -51.140625 C 82.992188 -43.585938 91.773438 -39.8125 101.984375 -39.8125 C 106.890625 -39.8125 111.535156 -40.421875 115.921875 -41.640625 C 120.304688 -42.867188 123.519531 -44.097656 125.5625 -45.328125 L 128.328125 -47.171875 L 146.703125 -9.5 C 145.273438 -8.476562 143.285156 -7.203125 140.734375 -5.671875 C 138.179688 -4.140625 132.359375 -2.046875 123.265625 0.609375 C 114.179688 3.265625 104.4375 4.59375 94.03125 4.59375 C 70.957031 4.59375 50.691406 -3.519531 33.234375 -19.75 C 15.773438 -35.988281 7.046875 -55.4375 7.046875 -78.09375 C 7.046875 -100.96875 15.773438 -120.617188 33.234375 -137.046875 C 50.691406 -153.484375 70.957031 -161.703125 94.03125 -161.703125 C 104.4375 -161.703125 114.03125 -160.476562 122.8125 -158.03125 C 131.59375 -155.582031 137.820312 -153.132812 141.5 -150.6875 L 146.703125 -147 L 128.328125 -109.953125 C 121.585938 -114.847656 112.804688 -117.296875 101.984375 -117.296875 Z M 101.984375 -117.296875 "/></g></g></g><g fill="#ffffff" fill-opacity="1"><g transform="translate(1295.759339, 763.787026)"><g><path d="M 18.375 0 L 18.375 -263.390625 L 72.578125 -263.390625 L 72.578125 -140.578125 L 73.203125 -140.578125 C 87.285156 -154.660156 102.289062 -161.703125 118.21875 -161.703125 C 125.976562 -161.703125 133.6875 -160.679688 141.34375 -158.640625 C 149 -156.597656 156.347656 -153.429688 163.390625 -149.140625 C 170.429688 -144.859375 176.144531 -138.785156 180.53125 -130.921875 C 184.925781 -123.066406 187.125 -113.929688 187.125 -103.515625 L 187.125 0 L 132.921875 0 L 132.921875 -88.8125 C 132.921875 -96.976562 130.316406 -104.125 125.109375 -110.25 C 119.898438 -116.375 113.113281 -119.4375 104.75 -119.4375 C 96.582031 -119.4375 89.175781 -116.269531 82.53125 -109.9375 C 75.894531 -103.613281 72.578125 -96.570312 72.578125 -88.8125 L 72.578125 0 Z M 18.375 0 "/></g></g></g><g transform="matrix(1, 0, 0, 1, 629, 785)"><g clip-path="url(#134105b94f)"><g fill="#ffffff" fill-opacity="1"><g transform="translate(4.303625, 59.2841)"><g><path d="M 54.234375 -43.328125 C 55.015625 -43.328125 55.734375 -43.035156 56.390625 -42.453125 C 57.046875 -41.878906 57.375 -41.117188 57.375 -40.171875 C 57.375 -39.847656 57.3125 -39.5 57.1875 -39.125 L 44.4375 -1.84375 C 44.269531 -1.269531 43.925781 -0.828125 43.40625 -0.515625 C 42.894531 -0.210938 42.351562 -0.0390625 41.78125 0 C 41.207031 0 40.648438 -0.160156 40.109375 -0.484375 C 39.578125 -0.816406 39.191406 -1.289062 38.953125 -1.90625 L 29.328125 -24.40625 L 19.78125 -1.90625 C 19.53125 -1.289062 19.140625 -0.816406 18.609375 -0.484375 C 18.078125 -0.160156 17.503906 0 16.890625 0 C 16.304688 -0.0390625 15.769531 -0.222656 15.28125 -0.546875 C 14.789062 -0.878906 14.460938 -1.3125 14.296875 -1.84375 L 1.546875 -39.125 C 1.421875 -39.5 1.359375 -39.847656 1.359375 -40.171875 C 1.359375 -41.078125 1.695312 -41.828125 2.375 -42.421875 C 3.050781 -43.023438 3.78125 -43.328125 4.5625 -43.328125 C 5.21875 -43.328125 5.8125 -43.148438 6.34375 -42.796875 C 6.882812 -42.453125 7.234375 -41.988281 7.390625 -41.40625 L 17.8125 -10.53125 L 26.75 -32.46875 C 26.988281 -33.050781 27.351562 -33.503906 27.84375 -33.828125 C 28.34375 -34.160156 28.898438 -34.328125 29.515625 -34.328125 C 30.128906 -34.328125 30.679688 -34.160156 31.171875 -33.828125 C 31.671875 -33.503906 32.046875 -33.050781 32.296875 -32.46875 L 40.984375 -10.53125 L 51.328125 -41.40625 C 51.492188 -42.03125 51.84375 -42.503906 52.375 -42.828125 C 52.914062 -43.160156 53.535156 -43.328125 54.234375 -43.328125 Z M 54.234375 -43.328125 "/></g></g></g><g fill="#ffffff" fill-opacity="1"><g transform="translate(103.196392, 59.2841)"><g><path d="M 9.921875 -2.953125 C 9.921875 -2.128906 9.640625 -1.429688 9.078125 -0.859375 C 8.523438 -0.285156 7.820312 0 6.96875 0 C 6.144531 0 5.453125 -0.285156 4.890625 -0.859375 C 4.335938 -1.429688 4.0625 -2.128906 4.0625 -2.953125 L 4.0625 -29.640625 C 4.0625 -30.460938 4.335938 -31.160156 4.890625 -31.734375 C 5.453125 -32.304688 6.144531 -32.59375 6.96875 -32.59375 C 7.820312 -32.59375 8.523438 -32.304688 9.078125 -31.734375 C 9.640625 -31.160156 9.921875 -30.460938 9.921875 -29.640625 Z M 6.96875 -36.671875 C 5.769531 -36.671875 4.914062 -36.882812 4.40625 -37.3125 C 3.894531 -37.75 3.640625 -38.4375 3.640625 -39.375 L 3.640625 -40.359375 C 3.640625 -41.347656 3.914062 -42.046875 4.46875 -42.453125 C 5.019531 -42.867188 5.875 -43.078125 7.03125 -43.078125 C 8.175781 -43.078125 9.003906 -42.859375 9.515625 -42.421875 C 10.035156 -41.992188 10.296875 -41.304688 10.296875 -40.359375 L 10.296875 -39.375 C 10.296875 -38.394531 10.023438 -37.695312 9.484375 -37.28125 C 8.953125 -36.875 8.113281 -36.671875 6.96875 -36.671875 Z M 6.96875 -36.671875 "/></g></g></g><g fill="#ffffff" fill-opacity="1"><g transform="translate(157.367522, 59.2841)"><g><path d="M 20.453125 -33.03125 C 21.523438 -33.03125 22.453125 -32.75 23.234375 -32.1875 C 24.015625 -31.632812 24.40625 -30.953125 24.40625 -30.140625 C 24.40625 -29.148438 24.144531 -28.394531 23.625 -27.875 C 23.113281 -27.363281 22.488281 -27.109375 21.75 -27.109375 C 21.382812 -27.109375 20.832031 -27.234375 20.09375 -27.484375 C 19.226562 -27.773438 18.550781 -27.921875 18.0625 -27.921875 C 16.78125 -27.921875 15.535156 -27.476562 14.328125 -26.59375 C 13.117188 -25.707031 12.132812 -24.492188 11.375 -22.953125 C 10.613281 -21.410156 10.234375 -19.695312 10.234375 -17.8125 L 10.234375 -2.953125 C 10.234375 -2.128906 9.953125 -1.429688 9.390625 -0.859375 C 8.835938 -0.285156 8.128906 0 7.265625 0 C 6.410156 0 5.710938 -0.273438 5.171875 -0.828125 C 4.640625 -1.378906 4.375 -2.085938 4.375 -2.953125 L 4.375 -29.328125 C 4.375 -30.148438 4.648438 -30.847656 5.203125 -31.421875 C 5.765625 -32.003906 6.453125 -32.296875 7.265625 -32.296875 C 8.128906 -32.296875 8.835938 -32.003906 9.390625 -31.421875 C 9.953125 -30.847656 10.234375 -30.148438 10.234375 -29.328125 L 10.234375 -26.1875 C 11.128906 -28.195312 12.484375 -29.828125 14.296875 -31.078125 C 16.109375 -32.335938 18.160156 -32.988281 20.453125 -33.03125 Z M 20.453125 -33.03125 "/></g></g></g><g fill="#ffffff" fill-opacity="1"><g transform="translate(222.996301, 59.2841)"><g><path d="M 32.71875 -17.375 C 32.675781 -16.632812 32.367188 -16.007812 31.796875 -15.5 C 31.222656 -14.988281 30.546875 -14.734375 29.765625 -14.734375 L 8.078125 -14.734375 C 8.359375 -11.734375 9.492188 -9.328125 11.484375 -7.515625 C 13.484375 -5.710938 15.921875 -4.8125 18.796875 -4.8125 C 20.765625 -4.8125 22.363281 -5.097656 23.59375 -5.671875 C 24.832031 -6.242188 25.925781 -6.984375 26.875 -7.890625 C 27.488281 -8.253906 28.082031 -8.4375 28.65625 -8.4375 C 29.351562 -8.4375 29.9375 -8.191406 30.40625 -7.703125 C 30.882812 -7.210938 31.125 -6.640625 31.125 -5.984375 C 31.125 -5.117188 30.710938 -4.335938 29.890625 -3.640625 C 28.691406 -2.441406 27.109375 -1.429688 25.140625 -0.609375 C 23.171875 0.203125 21.160156 0.609375 19.109375 0.609375 C 15.773438 0.609375 12.84375 -0.0859375 10.3125 -1.484375 C 7.789062 -2.878906 5.84375 -4.828125 4.46875 -7.328125 C 3.09375 -9.835938 2.40625 -12.675781 2.40625 -15.84375 C 2.40625 -19.289062 3.113281 -22.316406 4.53125 -24.921875 C 5.945312 -27.535156 7.816406 -29.539062 10.140625 -30.9375 C 12.460938 -32.332031 14.957031 -33.03125 17.625 -33.03125 C 20.25 -33.03125 22.710938 -32.351562 25.015625 -31 C 27.316406 -29.644531 29.164062 -27.773438 30.5625 -25.390625 C 31.957031 -23.003906 32.675781 -20.332031 32.71875 -17.375 Z M 17.625 -27.609375 C 15.320312 -27.609375 13.328125 -26.957031 11.640625 -25.65625 C 9.960938 -24.363281 8.851562 -22.363281 8.3125 -19.65625 L 26.5 -19.65625 L 26.5 -20.15625 C 26.289062 -22.332031 25.3125 -24.117188 23.5625 -25.515625 C 21.820312 -26.910156 19.84375 -27.609375 17.625 -27.609375 Z M 17.625 -27.609375 "/></g></g></g></g></g></svg>