<svg xmlns="http://www.w3.org/2000/svg" xmlns:xlink="http://www.w3.org/1999/xlink" width="2000" zoomAndPan="magnify" viewBox="0 0 1500 1499.999933" height="2000" preserveAspectRatio="xMidYMid meet" version="1.0"><defs><g/><clipPath id="23f1d711ac"><rect x="0" width="1470" y="0" height="377"/></clipPath><clipPath id="92793d9478"><rect x="0" width="301" y="0" height="78"/></clipPath></defs><g transform="matrix(1, 0, 0, 1, 18, 494)"><g clip-path="url(#23f1d711ac)"><g fill="#ffffff" fill-opacity="1"><g transform="translate(10.646921, 271.575838)"><g><path d="M 144.046875 -248.109375 L 244.203125 0 L 183.453125 0 L 165.109375 -49.625 L 70.671875 -49.625 L 52.328125 0 L -8.421875 0 L 91.71875 -248.109375 Z M 145.859375 -99.25 L 118.1875 -171.421875 L 117.59375 -171.421875 L 89.921875 -99.25 Z M 145.859375 -99.25 "/></g></g></g><g fill="#000000" fill-opacity="1"><g transform="translate(218.157446, 271.575838)"><g><path d="M 18.046875 0 L 18.046875 -258.625 L 71.28125 -258.625 L 71.28125 0 Z M 18.046875 0 "/></g></g></g><g fill="#ffffff" fill-opacity="1"><g transform="translate(279.214999, 271.575838)"><g><path d="M 176.828125 -135.171875 C 191.265625 -119.441406 198.484375 -100.144531 198.484375 -77.28125 C 198.484375 -54.425781 191.265625 -35.078125 176.828125 -19.234375 C 162.390625 -3.398438 144.046875 4.515625 121.796875 4.515625 C 101.347656 4.515625 84.507812 -1.898438 71.28125 -14.734375 L 71.28125 78.1875 L 18.046875 78.1875 L 18.046875 -154.28125 L 70.671875 -154.28125 L 70.671875 -136.828125 L 71.28125 -136.828125 C 84.507812 -151.460938 101.347656 -158.78125 121.796875 -158.78125 C 144.046875 -158.78125 162.390625 -150.910156 176.828125 -135.171875 Z M 131.578125 -51.125 C 138.492188 -57.9375 141.953125 -66.65625 141.953125 -77.28125 C 141.953125 -87.914062 138.640625 -96.585938 132.015625 -103.296875 C 125.398438 -110.015625 116.679688 -113.375 105.859375 -113.375 C 95.429688 -113.375 86.859375 -109.960938 80.140625 -103.140625 C 73.429688 -96.328125 70.078125 -87.707031 70.078125 -77.28125 C 70.078125 -66.65625 73.535156 -57.9375 80.453125 -51.125 C 87.367188 -44.3125 95.835938 -40.90625 105.859375 -40.90625 C 116.085938 -40.90625 124.660156 -44.3125 131.578125 -51.125 Z M 131.578125 -51.125 "/></g></g></g><g fill="#ffffff" fill-opacity="1"><g transform="translate(456.347334, 271.575838)"><g><path d="M 18.046875 0 L 18.046875 -258.625 L 71.28125 -258.625 L 71.28125 -138.03125 L 71.875 -138.03125 C 85.707031 -151.863281 100.441406 -158.78125 116.078125 -158.78125 C 123.703125 -158.78125 131.269531 -157.773438 138.78125 -155.765625 C 146.300781 -153.765625 153.519531 -150.660156 160.4375 -146.453125 C 167.351562 -142.242188 172.96875 -136.28125 177.28125 -128.5625 C 181.59375 -120.84375 183.75 -111.867188 183.75 -101.640625 L 183.75 0 L 130.515625 0 L 130.515625 -87.21875 C 130.515625 -95.238281 127.957031 -102.253906 122.84375 -108.265625 C 117.738281 -114.273438 111.070312 -117.28125 102.84375 -117.28125 C 94.832031 -117.28125 87.566406 -114.171875 81.046875 -107.953125 C 74.535156 -101.742188 71.28125 -94.832031 71.28125 -87.21875 L 71.28125 0 Z M 18.046875 0 "/></g></g></g><g fill="#ffffff" fill-opacity="1"><g transform="translate(626.863458, 271.575838)"><g><path d="M 28.5625 -19.09375 C 14.132812 -34.832031 6.921875 -54.128906 6.921875 -76.984375 C 6.921875 -99.835938 14.132812 -119.179688 28.5625 -135.015625 C 43 -150.859375 61.347656 -158.78125 83.609375 -158.78125 C 104.054688 -158.78125 120.894531 -152.367188 134.125 -139.546875 L 134.125 -154.28125 L 187.359375 -154.28125 L 187.359375 0 L 134.734375 0 L 134.734375 -17.4375 L 134.125 -17.4375 C 120.894531 -2.800781 104.054688 4.515625 83.609375 4.515625 C 61.347656 4.515625 43 -3.351562 28.5625 -19.09375 Z M 73.828125 -103.140625 C 66.910156 -96.328125 63.453125 -87.609375 63.453125 -76.984375 C 63.453125 -66.359375 66.757812 -57.6875 73.375 -50.96875 C 79.988281 -44.257812 88.710938 -40.90625 99.546875 -40.90625 C 109.972656 -40.90625 118.539062 -44.3125 125.25 -51.125 C 131.96875 -57.9375 135.328125 -66.554688 135.328125 -76.984375 C 135.328125 -87.609375 131.867188 -96.328125 124.953125 -103.140625 C 118.035156 -109.960938 109.566406 -113.375 99.546875 -113.375 C 89.316406 -113.375 80.742188 -109.960938 73.828125 -103.140625 Z M 73.828125 -103.140625 "/></g></g></g><g fill="#ffffff" fill-opacity="1"><g transform="translate(803.99577, 271.575838)"><g/></g></g><g fill="#ffffff" fill-opacity="1"><g transform="translate(857.82676, 271.575838)"><g><path d="M 2.40625 -198.484375 L 2.40625 -248.109375 L 176.828125 -248.109375 L 176.828125 -198.484375 L 117.890625 -198.484375 L 117.890625 0 L 61.34375 0 L 61.34375 -198.484375 Z M 2.40625 -198.484375 "/></g></g></g><g fill="#ffffff" fill-opacity="1"><g transform="translate(1008.795121, 271.575838)"><g><path d="M 174.125 -69.765625 L 62.25 -69.765625 C 62.25 -58.941406 65.753906 -50.921875 72.765625 -45.703125 C 79.785156 -40.492188 87.410156 -37.890625 95.640625 -37.890625 C 104.253906 -37.890625 111.066406 -39.039062 116.078125 -41.34375 C 121.097656 -43.65625 126.8125 -48.21875 133.21875 -55.03125 L 171.71875 -35.78125 C 155.675781 -8.914062 129.007812 4.515625 91.71875 4.515625 C 68.46875 4.515625 48.519531 -3.453125 31.875 -19.390625 C 15.238281 -35.335938 6.921875 -54.535156 6.921875 -76.984375 C 6.921875 -99.441406 15.238281 -118.6875 31.875 -134.71875 C 48.519531 -150.757812 68.46875 -158.78125 91.71875 -158.78125 C 116.175781 -158.78125 136.070312 -151.710938 151.40625 -137.578125 C 166.75 -123.453125 174.421875 -103.253906 174.421875 -76.984375 C 174.421875 -73.378906 174.320312 -70.972656 174.125 -69.765625 Z M 63.75 -99.25 L 122.40625 -99.25 C 121.195312 -107.257812 118.035156 -113.421875 112.921875 -117.734375 C 107.804688 -122.046875 101.242188 -124.203125 93.234375 -124.203125 C 84.410156 -124.203125 77.390625 -121.894531 72.171875 -117.28125 C 66.960938 -112.675781 64.15625 -106.664062 63.75 -99.25 Z M 63.75 -99.25 "/></g></g></g><g fill="#ffffff" fill-opacity="1"><g transform="translate(1161.868594, 271.575838)"><g><path d="M 100.140625 -115.1875 C 90.117188 -115.1875 81.5 -111.472656 74.28125 -104.046875 C 67.0625 -96.628906 63.453125 -87.707031 63.453125 -77.28125 C 63.453125 -66.65625 67.0625 -57.632812 74.28125 -50.21875 C 81.5 -42.800781 90.117188 -39.09375 100.140625 -39.09375 C 104.953125 -39.09375 109.515625 -39.691406 113.828125 -40.890625 C 118.140625 -42.097656 121.296875 -43.304688 123.296875 -44.515625 L 126 -46.3125 L 144.046875 -9.328125 C 142.648438 -8.316406 140.695312 -7.0625 138.1875 -5.5625 C 135.675781 -4.0625 129.957031 -2.007812 121.03125 0.59375 C 112.113281 3.207031 102.546875 4.515625 92.328125 4.515625 C 69.671875 4.515625 49.769531 -3.453125 32.625 -19.390625 C 15.488281 -35.335938 6.921875 -54.4375 6.921875 -76.6875 C 6.921875 -99.144531 15.488281 -118.441406 32.625 -134.578125 C 49.769531 -150.710938 69.671875 -158.78125 92.328125 -158.78125 C 102.546875 -158.78125 111.96875 -157.578125 120.59375 -155.171875 C 129.21875 -152.765625 135.332031 -150.363281 138.9375 -147.96875 L 144.046875 -144.359375 L 126 -107.96875 C 119.382812 -112.78125 110.765625 -115.1875 100.140625 -115.1875 Z M 100.140625 -115.1875 "/></g></g></g><g fill="#ffffff" fill-opacity="1"><g transform="translate(1281.259804, 271.575838)"><g><path d="M 18.046875 0 L 18.046875 -258.625 L 71.28125 -258.625 L 71.28125 -138.03125 L 71.875 -138.03125 C 85.707031 -151.863281 100.441406 -158.78125 116.078125 -158.78125 C 123.703125 -158.78125 131.269531 -157.773438 138.78125 -155.765625 C 146.300781 -153.765625 153.519531 -150.660156 160.4375 -146.453125 C 167.351562 -142.242188 172.96875 -136.28125 177.28125 -128.5625 C 181.59375 -120.84375 183.75 -111.867188 183.75 -101.640625 L 183.75 0 L 130.515625 0 L 130.515625 -87.21875 C 130.515625 -95.238281 127.957031 -102.253906 122.84375 -108.265625 C 117.738281 -114.273438 111.070312 -117.28125 102.84375 -117.28125 C 94.832031 -117.28125 87.566406 -114.171875 81.046875 -107.953125 C 74.535156 -101.742188 71.28125 -94.832031 71.28125 -87.21875 L 71.28125 0 Z M 18.046875 0 "/></g></g></g></g></g><g transform="matrix(1, 0, 0, 1, 632, 785)"><g clip-path="url(#92793d9478)"><g fill="#ffffff" fill-opacity="1"><g transform="translate(4.38173, 59.2841)"><g><path d="M 54.234375 -43.328125 C 55.015625 -43.328125 55.734375 -43.035156 56.390625 -42.453125 C 57.046875 -41.878906 57.375 -41.117188 57.375 -40.171875 C 57.375 -39.847656 57.3125 -39.5 57.1875 -39.125 L 44.4375 -1.84375 C 44.269531 -1.269531 43.925781 -0.828125 43.40625 -0.515625 C 42.894531 -0.210938 42.351562 -0.0390625 41.78125 0 C 41.207031 0 40.648438 -0.160156 40.109375 -0.484375 C 39.578125 -0.816406 39.191406 -1.289062 38.953125 -1.90625 L 29.328125 -24.40625 L 19.78125 -1.90625 C 19.53125 -1.289062 19.140625 -0.816406 18.609375 -0.484375 C 18.078125 -0.160156 17.503906 0 16.890625 0 C 16.304688 -0.0390625 15.769531 -0.222656 15.28125 -0.546875 C 14.789062 -0.878906 14.460938 -1.3125 14.296875 -1.84375 L 1.546875 -39.125 C 1.421875 -39.5 1.359375 -39.847656 1.359375 -40.171875 C 1.359375 -41.078125 1.695312 -41.828125 2.375 -42.421875 C 3.050781 -43.023438 3.78125 -43.328125 4.5625 -43.328125 C 5.21875 -43.328125 5.8125 -43.148438 6.34375 -42.796875 C 6.882812 -42.453125 7.234375 -41.988281 7.390625 -41.40625 L 17.8125 -10.53125 L 26.75 -32.46875 C 26.988281 -33.050781 27.351562 -33.503906 27.84375 -33.828125 C 28.34375 -34.160156 28.898438 -34.328125 29.515625 -34.328125 C 30.128906 -34.328125 30.679688 -34.160156 31.171875 -33.828125 C 31.671875 -33.503906 32.046875 -33.050781 32.296875 -32.46875 L 40.984375 -10.53125 L 51.328125 -41.40625 C 51.492188 -42.03125 51.84375 -42.503906 52.375 -42.828125 C 52.914062 -43.160156 53.535156 -43.328125 54.234375 -43.328125 Z M 54.234375 -43.328125 "/></g></g></g><g fill="#ffffff" fill-opacity="1"><g transform="translate(103.274498, 59.2841)"><g><path d="M 9.921875 -2.953125 C 9.921875 -2.128906 9.640625 -1.429688 9.078125 -0.859375 C 8.523438 -0.285156 7.820312 0 6.96875 0 C 6.144531 0 5.453125 -0.285156 4.890625 -0.859375 C 4.335938 -1.429688 4.0625 -2.128906 4.0625 -2.953125 L 4.0625 -29.640625 C 4.0625 -30.460938 4.335938 -31.160156 4.890625 -31.734375 C 5.453125 -32.304688 6.144531 -32.59375 6.96875 -32.59375 C 7.820312 -32.59375 8.523438 -32.304688 9.078125 -31.734375 C 9.640625 -31.160156 9.921875 -30.460938 9.921875 -29.640625 Z M 6.96875 -36.671875 C 5.769531 -36.671875 4.914062 -36.882812 4.40625 -37.3125 C 3.894531 -37.75 3.640625 -38.4375 3.640625 -39.375 L 3.640625 -40.359375 C 3.640625 -41.347656 3.914062 -42.046875 4.46875 -42.453125 C 5.019531 -42.867188 5.875 -43.078125 7.03125 -43.078125 C 8.175781 -43.078125 9.003906 -42.859375 9.515625 -42.421875 C 10.035156 -41.992188 10.296875 -41.304688 10.296875 -40.359375 L 10.296875 -39.375 C 10.296875 -38.394531 10.023438 -37.695312 9.484375 -37.28125 C 8.953125 -36.875 8.113281 -36.671875 6.96875 -36.671875 Z M 6.96875 -36.671875 "/></g></g></g><g fill="#ffffff" fill-opacity="1"><g transform="translate(157.445627, 59.2841)"><g><path d="M 20.453125 -33.03125 C 21.523438 -33.03125 22.453125 -32.75 23.234375 -32.1875 C 24.015625 -31.632812 24.40625 -30.953125 24.40625 -30.140625 C 24.40625 -29.148438 24.144531 -28.394531 23.625 -27.875 C 23.113281 -27.363281 22.488281 -27.109375 21.75 -27.109375 C 21.382812 -27.109375 20.832031 -27.234375 20.09375 -27.484375 C 19.226562 -27.773438 18.550781 -27.921875 18.0625 -27.921875 C 16.78125 -27.921875 15.535156 -27.476562 14.328125 -26.59375 C 13.117188 -25.707031 12.132812 -24.492188 11.375 -22.953125 C 10.613281 -21.410156 10.234375 -19.695312 10.234375 -17.8125 L 10.234375 -2.953125 C 10.234375 -2.128906 9.953125 -1.429688 9.390625 -0.859375 C 8.835938 -0.285156 8.128906 0 7.265625 0 C 6.410156 0 5.710938 -0.273438 5.171875 -0.828125 C 4.640625 -1.378906 4.375 -2.085938 4.375 -2.953125 L 4.375 -29.328125 C 4.375 -30.148438 4.648438 -30.847656 5.203125 -31.421875 C 5.765625 -32.003906 6.453125 -32.296875 7.265625 -32.296875 C 8.128906 -32.296875 8.835938 -32.003906 9.390625 -31.421875 C 9.953125 -30.847656 10.234375 -30.148438 10.234375 -29.328125 L 10.234375 -26.1875 C 11.128906 -28.195312 12.484375 -29.828125 14.296875 -31.078125 C 16.109375 -32.335938 18.160156 -32.988281 20.453125 -33.03125 Z M 20.453125 -33.03125 "/></g></g></g><g fill="#ffffff" fill-opacity="1"><g transform="translate(223.074406, 59.2841)"><g><path d="M 32.71875 -17.375 C 32.675781 -16.632812 32.367188 -16.007812 31.796875 -15.5 C 31.222656 -14.988281 30.546875 -14.734375 29.765625 -14.734375 L 8.078125 -14.734375 C 8.359375 -11.734375 9.492188 -9.328125 11.484375 -7.515625 C 13.484375 -5.710938 15.921875 -4.8125 18.796875 -4.8125 C 20.765625 -4.8125 22.363281 -5.097656 23.59375 -5.671875 C 24.832031 -6.242188 25.925781 -6.984375 26.875 -7.890625 C 27.488281 -8.253906 28.082031 -8.4375 28.65625 -8.4375 C 29.351562 -8.4375 29.9375 -8.191406 30.40625 -7.703125 C 30.882812 -7.210938 31.125 -6.640625 31.125 -5.984375 C 31.125 -5.117188 30.710938 -4.335938 29.890625 -3.640625 C 28.691406 -2.441406 27.109375 -1.429688 25.140625 -0.609375 C 23.171875 0.203125 21.160156 0.609375 19.109375 0.609375 C 15.773438 0.609375 12.84375 -0.0859375 10.3125 -1.484375 C 7.789062 -2.878906 5.84375 -4.828125 4.46875 -7.328125 C 3.09375 -9.835938 2.40625 -12.675781 2.40625 -15.84375 C 2.40625 -19.289062 3.113281 -22.316406 4.53125 -24.921875 C 5.945312 -27.535156 7.816406 -29.539062 10.140625 -30.9375 C 12.460938 -32.332031 14.957031 -33.03125 17.625 -33.03125 C 20.25 -33.03125 22.710938 -32.351562 25.015625 -31 C 27.316406 -29.644531 29.164062 -27.773438 30.5625 -25.390625 C 31.957031 -23.003906 32.675781 -20.332031 32.71875 -17.375 Z M 17.625 -27.609375 C 15.320312 -27.609375 13.328125 -26.957031 11.640625 -25.65625 C 9.960938 -24.363281 8.851562 -22.363281 8.3125 -19.65625 L 26.5 -19.65625 L 26.5 -20.15625 C 26.289062 -22.332031 25.3125 -24.117188 23.5625 -25.515625 C 21.820312 -26.910156 19.84375 -27.609375 17.625 -27.609375 Z M 17.625 -27.609375 "/></g></g></g></g></g></svg>